<svg width="40" height="40" viewBox="0 0 40 40" fill="none" xmlns="http://www.w3.org/2000/svg">
<rect width="40" height="40" rx="10" fill="#F1F5F9"/>
<path fill-rule="evenodd" clip-rule="evenodd" d="M19.4342 26.1662C19.7466 26.4786 20.2532 26.4786 20.5656 26.1662L26.1656 20.5662C26.478 20.2538 26.478 19.7472 26.1656 19.4348C25.8532 19.1224 25.3466 19.1224 25.0342 19.4348L20.7999 23.6691L20.7999 14.4005C20.7999 13.9587 20.4417 13.6005 19.9999 13.6005C19.5581 13.6005 19.1999 13.9587 19.1999 14.4005L19.1999 23.6691L14.9656 19.4348C14.6532 19.1224 14.1466 19.1224 13.8342 19.4348C13.5218 19.7472 13.5218 20.2538 13.8342 20.5662L19.4342 26.1662Z" fill="#034EA2"/>
</svg>
