<?xml version="1.0" standalone="no"?>
<!DOCTYPE svg PUBLIC "-//W3C//DTD SVG 20010904//EN"
 "http://www.w3.org/TR/2001/REC-SVG-20010904/DTD/svg10.dtd">
<svg version="1.0" xmlns="http://www.w3.org/2000/svg"
 width="400.000000pt" height="400.000000pt" viewBox="0 0 400.000000 400.000000"
 preserveAspectRatio="xMidYMid meet">

<g transform="translate(0.000000,400.000000) scale(0.100000,-0.100000)"
fill="#000000" stroke="none">
<path d="M1757 3844 c-178 -49 -301 -110 -442 -219 -181 -142 -329 -326 -447
-556 -108 -211 -167 -393 -219 -684 -18 -102 -22 -159 -22 -375 -1 -263 1
-287 50 -530 72 -362 244 -710 469 -949 188 -199 383 -317 624 -376 133 -34
331 -35 453 -4 193 48 342 120 482 232 80 64 225 218 286 303 167 234 309 573
350 839 5 33 17 105 25 160 19 122 22 491 5 615 -55 406 -193 766 -399 1040
-70 94 -216 240 -307 308 -68 50 -277 163 -303 162 -7 0 -20 4 -30 10 -9 5
-55 19 -101 30 -126 30 -353 28 -474 -6z m359 -5 c172 -19 367 -96 524 -208
66 -46 237 -211 278 -266 183 -247 256 -393 361 -730 42 -134 81 -438 81 -635
0 -197 -39 -501 -81 -635 -105 -336 -183 -493 -361 -730 -43 -58 -214 -220
-278 -266 -202 -143 -398 -209 -625 -211 -308 -2 -561 108 -806 352 -148 147
-232 264 -329 460 -64 128 -84 177 -115 280 -7 25 -23 77 -35 115 -11 39 -33
135 -47 215 -25 134 -27 166 -27 420 0 255 2 285 26 420 33 178 97 396 150
510 11 25 29 63 39 85 110 239 322 496 520 631 152 104 333 175 495 193 101
12 125 12 230 0z"/>
<path d="M1904 3761 c3 -17 9 -44 12 -61 5 -27 -9 -44 -18 -21 -1 5 -18 27
-37 50 -23 28 -42 41 -58 41 -24 0 -24 -1 -18 -57 15 -124 19 -138 40 -138 17
0 20 6 17 35 -1 19 -5 45 -7 58 -8 36 10 26 51 -28 26 -34 45 -50 61 -50 26 0
27 1 10 115 -11 72 -14 80 -36 83 -21 3 -22 1 -17 -27z"/>
<path d="M1521 3666 c-16 -18 6 -216 23 -216 24 0 38 18 32 38 -6 17 0 24 25
37 27 14 36 15 56 4 19 -10 26 -10 36 0 10 10 -3 27 -63 82 -41 38 -80 69 -86
69 -6 0 -17 -6 -23 -14z m68 -70 l23 -24 -22 -12 c-26 -14 -26 -14 -35 28 -8
38 3 41 34 8z"/>
<path d="M1870 3525 c-218 -38 -427 -191 -591 -434 -134 -198 -202 -374 -276
-716 -26 -117 -26 -633 0 -750 74 -343 138 -507 273 -710 117 -176 234 -285
399 -373 125 -67 277 -93 426 -72 174 23 323 104 475 255 237 235 400 613 444
1026 12 121 12 377 0 498 -33 312 -136 610 -296 853 -58 89 -217 250 -299 303
-90 59 -219 111 -308 124 -96 14 -150 13 -247 -4z m118 -1377 c2 -19 -2 -28
-16 -32 -11 -4 -31 -17 -44 -31 -32 -32 -71 -41 -88 -20 -17 20 -19 87 -2 92
8 3 12 -6 12 -26 0 -42 18 -48 28 -9 9 37 25 40 30 8 3 -21 4 -21 17 -3 8 10
15 26 15 36 0 31 44 18 48 -15z m284 -15 c10 -9 18 -23 18 -31 0 -12 3 -12 15
-2 23 19 65 -3 65 -34 0 -25 -50 -76 -75 -76 -23 0 -45 12 -39 21 3 5 -7 9
-21 9 -15 0 -35 5 -46 10 -18 10 -18 13 -4 40 8 16 15 40 15 55 0 20 5 25 27
25 14 0 35 -7 45 -17z m-205 -55 c35 -33 32 -89 -8 -122 -34 -29 -62 -32 -98
-12 -21 11 -22 15 -8 22 20 11 12 94 -9 94 -19 0 -7 26 19 38 30 15 76 6 104
-20z m-439 -23 c2 -11 16 -32 30 -48 24 -25 25 -29 10 -43 -11 -11 -36 -17
-75 -18 l-58 -1 0 45 c0 29 4 45 12 45 7 0 20 10 29 23 19 27 47 25 52 -3z
m316 -21 c14 -37 6 -52 -30 -59 -40 -7 -54 3 -54 42 0 15 7 23 23 26 44 8 55
7 61 -9z m-100 -26 c9 -35 8 -36 -25 -54 -30 -15 -32 -15 -55 7 -27 25 -24 36
20 55 43 19 53 17 60 -8z m-96 -56 c2 -7 -6 -12 -17 -12 -21 0 -27 11 -14 24
9 9 26 2 31 -12z m732 -68 l0 -44 -200 0 -200 0 0 -333 c0 -378 12 -331 -97
-387 l-53 -28 -2 372 -3 371 -197 3 -198 2 0 39 c0 21 3 40 6 44 3 3 217 5
475 5 l469 -1 0 -43z m-735 -73 c-6 -4 -22 -11 -37 -15 -21 -5 -28 -3 -28 9 0
11 11 15 37 15 22 0 33 -4 28 -9z m20 -64 c12 -37 12 -38 -15 -52 -32 -17 -40
-11 -58 43 -9 25 -8 34 1 37 7 2 19 6 27 8 25 9 31 3 45 -36z m59 -68 c25 -19
25 -22 11 -49 l-15 -29 -35 20 c-48 28 -52 39 -25 61 28 23 31 23 64 -3z m86
-69 c0 -22 -4 -40 -10 -40 -17 0 -60 23 -60 32 0 24 23 48 45 48 22 0 25 -4
25 -40z m229 -56 c8 -7 -22 -65 -33 -61 -6 2 -12 20 -14 41 -3 35 -2 37 20 31
13 -4 25 -9 27 -11z m65 -37 l29 -24 -21 -21 c-27 -27 -30 -27 -61 -3 -24 18
-24 20 -8 45 21 32 25 32 61 3z m64 -64 c34 -50 34 -61 0 -68 -26 -6 -34 -3
-49 16 -23 30 -23 34 -2 59 23 26 28 25 51 -7z m32 -122 c0 -57 -8 -65 -44
-51 -22 8 -26 16 -26 49 0 33 4 40 23 44 46 9 47 8 47 -42z m-23 -77 c6 -16
-42 -84 -58 -84 -6 0 -19 10 -29 22 -17 22 -17 23 6 54 19 24 30 30 50 26 14
-2 28 -11 31 -18z m-816 -87 c47 -19 102 -37 122 -41 48 -9 47 -22 0 -30 -21
-3 -45 -11 -53 -16 -13 -9 -10 -14 14 -33 99 -76 348 -189 377 -171 5 3 9 26
9 52 0 52 -2 50 98 104 l52 29 0 -95 c0 -59 4 -96 10 -96 42 0 220 75 288 121
24 16 45 29 48 29 3 0 12 7 20 15 8 8 23 19 32 25 15 8 15 11 2 20 -8 5 -32
13 -52 16 -48 8 -49 21 -1 30 41 8 182 63 255 100 55 28 55 28 29 -71 -29
-108 -93 -236 -144 -290 -19 -20 -19 -19 -13 75 l7 95 -37 -43 c-42 -49 -116
-101 -224 -157 -125 -65 -177 -105 -263 -205 -26 -30 -40 -41 -44 -32 -3 8
-30 40 -61 73 -62 67 -143 123 -281 195 -70 37 -108 64 -149 109 l-55 60 6
-95 6 -95 -24 28 c-62 70 -135 234 -152 339 l-6 40 49 -25 c27 -14 88 -41 135
-60z m723 8 c16 -24 15 -25 -24 -51 -39 -26 -41 -27 -55 -8 -22 29 -18 47 13
66 37 23 47 22 66 -7z m-99 -54 c15 -29 14 -30 -21 -52 l-37 -22 -18 24 c-10
13 -19 27 -19 31 0 6 26 22 77 47 1 1 9 -12 18 -28z m-92 -51 c21 -25 17 -34
-25 -55 -31 -15 -33 -15 -50 7 -21 28 -19 39 13 55 33 17 42 16 62 -7z m-73
-78 c0 -4 -14 -15 -31 -25 -31 -17 -32 -17 -58 9 -17 18 -22 28 -14 31 7 3 23
13 35 24 23 18 23 18 46 -7 12 -14 22 -28 22 -32z m-90 -34 c17 -19 18 -24 6
-36 -11 -12 -18 -11 -45 2 -27 14 -30 20 -21 36 14 26 34 25 60 -2z m-119
-138 c11 -6 19 -21 19 -36 0 -24 -3 -25 -32 -19 -42 9 -42 9 -34 40 7 27 17
31 47 15z m-16 -72 c20 -9 25 -18 25 -46 0 -31 -2 -34 -22 -28 -13 3 -29 6
-35 6 -8 0 -13 15 -13 40 0 43 5 46 45 28z m25 -124 c0 -32 -2 -34 -35 -34
-33 0 -35 2 -35 33 0 42 3 45 40 39 27 -4 30 -8 30 -38z"/>
<path d="M1984 2036 c-9 -24 4 -48 23 -44 24 4 24 52 0 56 -9 2 -20 -4 -23
-12z"/>
<path d="M1313 3523 c-26 -10 -14 -30 79 -132 31 -33 42 -40 49 -30 5 8 9 19
9 24 -1 18 -125 144 -137 138z"/>
<path d="M2665 3410 c-61 -60 -68 -70 -55 -84 12 -15 17 -13 55 24 22 22 43
40 47 40 3 0 -3 -32 -14 -72 -17 -64 -17 -73 -4 -87 14 -13 23 -8 85 50 71 66
82 85 55 96 -10 4 -30 -8 -56 -33 -45 -44 -46 -42 -17 58 10 38 10 49 0 62 -8
9 -16 16 -20 15 -3 0 -37 -31 -76 -69z"/>
<path d="M1125 3325 c-20 -25 -35 -51 -33 -59 2 -8 34 -39 73 -70 62 -49 71
-54 85 -41 13 13 11 18 -12 42 -25 24 -26 27 -11 50 18 27 35 29 53 8 16 -19
46 -19 53 -1 6 15 -43 56 -68 56 -8 0 -15 6 -15 13 0 22 -34 47 -62 47 -18 0
-36 -13 -63 -45z m84 -9 c9 -11 6 -20 -13 -42 -23 -27 -26 -28 -42 -12 -15 15
-15 18 2 42 22 29 36 32 53 12z"/>
<path d="M2866 3159 c-49 -10 -91 -21 -94 -24 -12 -11 23 -36 43 -31 29 7 66
-54 47 -77 -13 -15 -7 -47 9 -47 5 0 38 37 73 82 55 69 62 84 53 100 -14 21
-15 21 -131 -3z m74 -37 c0 -15 -38 -44 -49 -37 -15 9 -14 32 2 38 20 9 47 8
47 -1z"/>
<path d="M960 3068 c-31 -58 -31 -62 -14 -75 10 -7 21 -13 25 -13 5 0 35 -16
68 -35 32 -19 62 -35 65 -35 3 0 21 31 41 69 29 58 32 70 19 75 -9 3 -17 6
-19 6 -2 0 -14 -20 -26 -45 -19 -37 -26 -44 -43 -39 -30 9 -30 10 -7 50 21 36
22 64 2 64 -6 0 -20 -18 -31 -40 -21 -42 -26 -45 -49 -31 -11 7 -8 17 13 53
14 25 23 48 19 51 -16 17 -33 2 -63 -55z"/>
<path d="M3011 2908 c-50 -45 -71 -70 -71 -87 l0 -24 107 7 c59 4 109 9 111
11 3 2 2 12 -2 21 -6 15 -17 16 -84 11 -86 -6 -86 -12 2 58 27 22 35 35 31 48
-4 9 -11 17 -16 17 -4 0 -40 -28 -78 -62z"/>
<path d="M859 2821 c-23 -24 -29 -38 -29 -73 0 -72 59 -110 145 -94 40 8 70
52 62 92 -2 13 0 24 4 24 24 0 5 32 -27 45 -52 22 -61 19 -74 -21 -10 -30 -10
-38 1 -45 10 -6 17 -2 23 11 12 25 23 25 31 0 15 -48 -24 -81 -77 -65 -37 12
-48 25 -48 61 0 28 5 36 25 44 15 6 25 17 25 30 0 29 -27 25 -61 -9z"/>
<path d="M3143 2665 c-29 -27 -67 -55 -85 -61 -41 -14 -48 -50 -8 -46 57 5 78
5 129 -7 30 -6 56 -10 57 -8 2 2 1 13 -3 25 -4 16 -13 22 -33 22 -16 0 -36 3
-46 7 -14 5 -12 10 15 33 26 20 32 32 29 55 l-3 30 -52 -50z"/>
<path d="M766 2535 c-7 -20 15 -30 108 -50 64 -13 81 -13 87 -3 13 20 5 33
-22 36 -13 2 -51 9 -85 17 -75 19 -81 19 -88 0z"/>
<path d="M730 2352 c0 -17 8 -22 38 -27 90 -15 91 -19 21 -47 -52 -21 -65 -30
-67 -51 -3 -23 0 -25 55 -31 32 -4 77 -9 101 -13 37 -5 42 -3 42 15 0 20 -32
32 -87 32 -35 0 -24 21 19 36 52 18 88 44 88 64 0 14 -12 18 -62 24 -35 3 -82
9 -105 12 -39 6 -43 5 -43 -14z"/>
<path d="M3100 1716 c-15 -19 -41 -129 -32 -138 8 -7 138 -28 176 -28 19 0 26
5 26 20 0 14 -7 20 -22 20 -34 0 -50 15 -46 41 2 20 10 25 43 29 32 4 41 9 43
28 3 22 1 23 -47 21 -30 -2 -56 2 -63 9 -17 17 -63 15 -78 -2z m58 -42 c16
-28 2 -64 -24 -64 -26 0 -30 14 -14 54 11 30 25 33 38 10z"/>
<path d="M791 1706 c-18 -6 -39 -20 -47 -31 -21 -29 -18 -98 7 -129 18 -22 28
-26 75 -26 48 0 60 4 85 29 51 51 33 137 -33 160 -37 13 -43 13 -87 -3z m90
-46 c27 -15 25 -64 -3 -84 -12 -9 -37 -16 -55 -16 -60 0 -83 78 -30 100 30 12
65 12 88 0z"/>
<path d="M3026 1422 c-9 -32 -16 -63 -16 -69 0 -10 88 -41 162 -57 26 -6 28
-3 48 60 25 81 25 84 1 84 -15 0 -22 -12 -31 -50 -12 -50 -22 -58 -49 -41 -12
8 -13 16 -2 51 7 23 10 44 7 47 -12 12 -35 -8 -41 -37 -7 -32 -26 -47 -44 -36
-6 4 -5 21 5 48 18 52 18 58 -5 58 -14 0 -22 -14 -35 -58z"/>
<path d="M872 1421 c-94 -32 -95 -32 -86 -55 4 -11 12 -15 23 -10 23 9 93 25
97 22 1 -2 -20 -27 -47 -55 -43 -45 -49 -55 -39 -73 6 -11 12 -20 13 -20 1 0
42 13 91 28 90 28 102 36 88 60 -7 10 -17 9 -51 -3 -72 -25 -76 -19 -27 39 44
51 60 97 34 95 -7 0 -50 -13 -96 -28z"/>
<path d="M2967 1243 c-16 -15 -5 -35 24 -45 26 -9 30 -14 24 -37 -11 -42 -23
-51 -52 -40 -30 11 -53 6 -53 -13 0 -12 157 -88 180 -88 6 0 10 9 10 20 0 13
-12 26 -35 37 -25 12 -34 21 -29 32 3 9 9 24 11 34 6 21 25 22 63 2 27 -14 30
-14 40 5 10 18 4 23 -64 54 -91 42 -111 48 -119 39z"/>
<path d="M979 1164 c-90 -81 -92 -83 -85 -100 5 -13 15 -15 54 -9 26 4 55 11
65 17 40 21 26 -2 -22 -38 -48 -36 -63 -65 -41 -79 10 -6 190 24 202 34 4 4 3
13 -2 21 -7 11 -19 12 -69 4 -34 -6 -61 -8 -61 -5 0 4 21 21 45 40 48 36 50
38 35 61 -8 13 -16 13 -70 -1 -33 -9 -60 -12 -60 -8 0 4 20 22 45 40 45 33 51
43 37 67 -6 9 -26 -3 -73 -44z"/>
<path d="M2829 968 c-21 -34 -38 -67 -36 -72 7 -20 35 -17 42 3 8 27 14 26 59
-4 20 -14 40 -25 43 -25 4 0 15 -7 25 -16 14 -14 20 -14 33 -4 8 7 15 15 15
19 0 3 -29 24 -65 46 -62 37 -80 64 -55 80 15 9 12 22 -5 29 -11 4 -27 -12
-56 -56z"/>
<path d="M1130 863 c-47 -14 -91 -27 -99 -29 -22 -7 7 -34 38 -34 36 -1 67
-44 53 -74 -7 -16 -6 -27 3 -39 11 -15 19 -7 69 68 59 89 64 103 44 123 -15
15 -6 16 -108 -15z m61 -41 c-18 -34 -37 -44 -51 -27 -14 17 -14 17 15 33 32
18 47 15 36 -6z"/>
<path d="M2696 784 l-47 -58 28 -25 c15 -15 50 -44 77 -66 l48 -39 49 54 c53
59 57 68 34 76 -8 4 -27 -8 -46 -30 -17 -20 -37 -36 -45 -36 -27 0 -26 29 0
61 29 34 32 45 14 52 -7 3 -26 -10 -43 -29 -26 -29 -32 -32 -47 -21 -15 12
-13 17 19 51 32 33 34 39 21 53 -14 13 -21 9 -62 -43z"/>
<path d="M1277 672 c-37 -37 -67 -73 -67 -79 0 -22 26 -20 53 5 l27 26 20 -22
c20 -21 27 -52 12 -52 -4 0 -12 -8 -18 -18 -9 -14 -8 -22 2 -36 12 -17 14 -17
38 10 14 16 26 37 26 47 0 10 8 17 18 17 24 0 52 31 52 56 0 15 -81 114 -93
114 -2 0 -33 -30 -70 -68z m102 -16 c13 -14 20 -29 16 -35 -10 -17 -40 -13
-60 9 -15 16 -15 22 -5 35 17 20 23 19 49 -9z"/>
<path d="M2535 628 c-43 -24 -57 -51 -52 -96 5 -49 28 -79 74 -98 42 -18 88
-2 109 37 8 16 20 28 27 26 6 -1 12 4 12 12 0 17 -47 80 -61 81 -14 0 -54 -43
-54 -58 0 -15 23 -15 38 0 9 9 13 7 18 -6 9 -22 -23 -56 -52 -56 -29 0 -74 47
-74 77 0 24 42 59 59 49 14 -9 41 4 41 19 0 25 -51 33 -85 13z"/>
<path d="M1497 543 c-13 -21 -36 -57 -50 -80 -15 -24 -27 -46 -27 -51 0 -13
94 -62 118 -62 30 0 79 45 92 84 18 54 -6 94 -77 130 l-33 16 -23 -37z m74
-33 c26 -15 25 -62 -4 -96 -19 -22 -29 -26 -51 -20 -39 10 -41 28 -11 80 28
49 35 52 66 36z"/>
<path d="M2310 487 c-48 -17 -74 -68 -59 -120 24 -87 113 -114 175 -52 47 47
19 151 -48 174 -17 6 -31 11 -32 10 -1 0 -17 -5 -36 -12z m83 -67 c21 -36 21
-59 0 -82 -37 -41 -95 -7 -97 59 -1 29 4 39 22 49 32 16 55 8 75 -26z"/>
<path d="M2110 425 c-8 -2 -32 -6 -53 -10 -48 -8 -49 -39 -2 -40 23 0 30 -5
32 -20 12 -128 14 -135 35 -135 19 0 19 4 13 84 -7 83 -7 84 16 88 13 1 25 11
27 21 3 13 -3 17 -25 16 -15 -1 -35 -3 -43 -4z"/>
</g>
</svg>
