<?xml version="1.0" standalone="no"?>
<!DOCTYPE svg PUBLIC "-//W3C//DTD SVG 20010904//EN"
 "http://www.w3.org/TR/2001/REC-SVG-20010904/DTD/svg10.dtd">
<svg version="1.0" xmlns="http://www.w3.org/2000/svg"
 width="300.000000pt" height="300.000000pt" viewBox="0 0 300.000000 300.000000"
 preserveAspectRatio="xMidYMid meet">

<g transform="translate(0.000000,300.000000) scale(0.100000,-0.100000)"
fill="#000000" stroke="none">
<path d="M480 2223 c0 -500 0 -510 25 -635 45 -228 118 -380 257 -533 122
-135 256 -226 513 -350 143 -69 174 -92 216 -155 8 -13 11 -12 24 5 38 53 83
83 238 160 248 123 382 215 502 347 140 154 211 296 254 510 20 98 21 130 19
628 l-3 525 -1022 3 -1023 2 0 -507z m1070 415 c41 -24 51 -38 25 -38 -19 0
-19 -17 1 -37 12 -12 14 -27 9 -68 -9 -70 1 -115 25 -115 30 0 40 32 39 116
-1 64 2 80 17 91 71 52 188 -48 201 -172 3 -30 9 -55 13 -55 4 0 10 -30 13
-67 4 -50 2 -72 -8 -83 -12 -13 -12 -27 0 -90 7 -41 17 -85 21 -97 5 -17 2
-23 -9 -23 -8 0 -18 6 -20 13 -3 7 -6 5 -6 -5 -1 -10 -4 -18 -7 -18 -10 0
-114 104 -114 114 0 5 -9 19 -19 30 -11 12 -26 34 -35 50 -12 23 -21 29 -54
30 l-40 2 28 -50 c24 -45 85 -143 107 -172 24 -32 43 -78 35 -86 -14 -14 -74
26 -96 64 -13 21 -21 27 -24 18 -3 -7 12 -29 32 -47 38 -35 45 -53 21 -53 -8
0 -15 -4 -15 -10 0 -5 -7 -10 -15 -10 -8 0 -15 -5 -15 -10 0 -6 -11 -8 -25 -4
-14 3 -25 2 -25 -2 1 -21 20 -36 59 -45 46 -10 41 -13 171 106 118 109 130
119 135 113 3 -3 1 -18 -5 -33 -10 -27 -36 -54 -120 -126 -51 -44 -44 -49 26
-17 69 32 218 32 285 0 49 -23 147 -42 217 -42 46 0 54 -14 25 -42 -10 -9 -33
-33 -52 -53 -28 -30 -40 -36 -68 -33 -22 2 -37 -3 -43 -12 -5 -8 -20 -17 -32
-19 -38 -5 -189 -4 -253 3 -33 4 -69 7 -79 7 -11 0 -27 4 -36 9 -9 5 -22 5
-29 1 -7 -5 -28 -5 -46 -1 -20 5 -38 3 -44 -3 -8 -8 -18 -4 -35 12 l-24 23
-61 -49 c-33 -26 -59 -53 -58 -60 1 -6 41 -45 89 -86 l87 -74 71 5 c50 3 79 1
98 -9 65 -34 87 -97 53 -154 -12 -20 -21 -45 -21 -56 0 -14 -5 -19 -17 -17
-10 2 -17 11 -17 21 1 9 -4 17 -11 17 -15 0 -105 78 -105 91 0 19 37 8 75 -23
22 -18 42 -36 43 -40 2 -5 10 -8 18 -8 15 0 20 63 8 94 -10 25 -71 58 -94 51
-23 -7 -90 -91 -90 -111 0 -19 -45 -18 -64 2 -19 18 -21 85 -3 103 10 10 1 23
-46 67 -32 30 -61 54 -66 54 -4 0 -7 -91 -7 -202 l1 -203 31 -3 c49 -5 136 33
156 67 21 39 56 58 64 36 4 -8 3 -31 -1 -51 -5 -29 -10 -35 -26 -31 -13 4 -28
-5 -47 -27 -33 -40 -78 -71 -114 -80 -15 -3 -42 -22 -61 -41 -41 -42 -51 -43
-74 -9 -9 15 -40 37 -68 49 -27 13 -73 43 -102 69 -28 25 -58 46 -66 46 -18 0
-27 21 -27 66 0 21 5 34 13 34 21 0 57 -39 57 -61 0 -27 98 -71 149 -67 l36 3
3 203 c1 127 -1 202 -7 202 -6 0 -33 -19 -60 -42 -38 -33 -49 -48 -45 -63 18
-62 16 -84 -9 -109 -29 -29 -53 -26 -63 7 -12 39 -74 107 -97 107 -48 -1 -103
-77 -91 -126 8 -33 20 -30 70 16 43 39 74 51 74 28 0 -15 -80 -88 -97 -88 -8
0 -13 -8 -11 -17 5 -27 -29 -28 -35 -1 -3 13 -13 44 -23 69 -17 44 -17 47 3
85 25 50 73 68 159 60 58 -5 63 -3 96 27 20 18 58 50 86 72 47 37 65 65 42 65
-5 0 -31 20 -57 45 -26 24 -51 45 -55 45 -4 0 -13 -9 -22 -21 -11 -16 -18 -19
-31 -11 -10 5 -32 6 -51 2 -19 -5 -37 -3 -43 3 -7 7 -14 7 -24 -1 -8 -7 -25
-12 -38 -11 -13 0 -49 -3 -79 -7 -63 -8 -211 -8 -254 -1 -16 3 -33 12 -38 20
-5 9 -16 13 -28 10 -29 -8 -70 5 -70 22 0 7 -9 17 -20 20 -11 3 -20 10 -20 15
0 5 -9 18 -21 29 -28 26 -17 41 29 41 20 0 64 5 97 10 33 6 69 12 80 13 11 1
25 8 30 14 15 19 123 36 188 29 32 -3 80 -15 108 -27 27 -12 52 -20 54 -17 2
2 -29 32 -69 66 -66 56 -98 103 -82 120 3 3 40 -26 82 -64 42 -38 98 -88 124
-111 l48 -42 53 18 c64 23 99 62 78 88 -10 11 -14 54 -15 152 -2 114 -4 137
-17 139 -9 2 -22 -6 -29 -17 -9 -15 -15 -17 -25 -9 -10 8 -13 5 -13 -10 0 -12
-9 -26 -20 -32 -11 -6 -20 -19 -20 -30 0 -10 -4 -20 -8 -22 -5 -1 -15 -16 -23
-32 -19 -39 -39 -45 -39 -12 0 31 -20 35 -27 6 -8 -29 -23 -24 -24 8 -1 27 -1
27 -8 -4 -4 -17 -11 -36 -15 -42 -18 -30 -23 -4 -18 93 3 64 1 109 -5 117 -13
17 -9 118 6 145 6 12 11 36 11 53 0 59 45 137 98 172 37 24 87 23 113 -3 19
-19 20 -28 14 -85 -6 -61 -1 -104 13 -104 4 0 22 25 40 55 43 71 41 115 -3
129 -16 6 -32 11 -34 13 -7 5 24 36 54 55 40 24 68 23 115 -4z m-501 -1477
c89 -45 186 -97 236 -126 43 -25 45 -29 45 -71 l0 -44 185 0 185 0 0 29 c0 38
9 61 24 61 6 0 27 10 46 23 19 13 60 37 90 53 30 16 57 31 60 34 16 17 132 70
140 65 5 -3 10 -30 10 -58 0 -48 -2 -54 -27 -64 -16 -7 -53 -26 -83 -44 -122
-72 -233 -129 -251 -129 -4 0 -9 -19 -11 -42 l-3 -43 -182 -3 -183 -2 0 47 0
48 -88 43 c-48 23 -116 58 -152 78 -36 20 -77 43 -92 51 -23 12 -28 21 -28 53
0 39 8 70 17 70 3 0 31 -13 62 -29z"/>
<path d="M1295 2190 c3 -5 8 -10 11 -10 2 0 4 5 4 10 0 6 -5 10 -11 10 -5 0
-7 -4 -4 -10z"/>
<path d="M1525 1938 c-4 -10 -13 -18 -21 -18 -8 0 -14 -4 -14 -10 0 -5 -6 -10
-14 -10 -9 0 -13 -10 -10 -32 1 -18 3 -36 3 -41 1 -7 88 0 103 9 14 9 9 51 -8
65 -9 7 -20 22 -24 34 -7 18 -9 18 -15 3z"/>
<path d="M1440 1740 c-13 -11 -27 -20 -32 -20 -5 0 0 -13 12 -30 28 -39 53
-40 49 -2 -2 15 0 33 5 40 15 25 -9 33 -34 12z"/>
<path d="M1549 1754 c-5 -33 -3 -94 4 -94 8 0 60 52 55 54 -2 1 -15 12 -30 25
-16 14 -29 20 -29 15z"/>
<path d="M1152 1058 c-14 -14 -16 -28 -3 -28 9 0 24 30 18 36 -2 2 -9 -2 -15
-8z"/>
<path d="M1240 1019 c0 -5 5 -7 10 -4 6 3 10 8 10 11 0 2 -4 4 -10 4 -5 0 -10
-5 -10 -11z"/>
<path d="M1825 1000 c-3 -5 -1 -10 4 -10 6 0 11 5 11 10 0 6 -2 10 -4 10 -3 0
-8 -4 -11 -10z"/>
<path d="M1455 867 c-4 -10 -5 -21 -1 -24 10 -10 18 4 13 24 -4 17 -4 17 -12
0z"/>
<path d="M1495 870 c3 -5 8 -10 11 -10 2 0 4 5 4 10 0 6 -5 10 -11 10 -5 0 -7
-4 -4 -10z"/>
<path d="M520 765 c0 -8 4 -15 10 -15 5 0 7 7 4 15 -4 8 -8 15 -10 15 -2 0 -4
-7 -4 -15z"/>
<path d="M2466 765 c-3 -9 0 -15 9 -15 16 0 20 16 6 24 -5 3 -11 -1 -15 -9z"/>
<path d="M574 726 c11 -9 24 -16 30 -16 12 0 7 5 -24 19 -24 11 -24 11 -6 -3z"/>
<path d="M2414 724 c-18 -14 -18 -14 6 -3 31 14 36 19 24 19 -6 0 -19 -7 -30
-16z"/>
<path d="M873 703 c-7 -2 -13 -9 -13 -15 0 -7 4 -7 13 0 6 5 23 12 37 15 l25
4 -25 1 c-14 0 -31 -2 -37 -5z"/>
<path d="M2108 678 c17 -8 26 -8 34 0 9 9 4 12 -22 11 -33 0 -34 -1 -12 -11z"/>
<path d="M758 648 c-21 -6 -38 -15 -38 -20 0 -6 7 -7 16 -4 9 3 31 6 50 6 26
0 32 3 28 15 -7 17 -5 17 -56 3z"/>
<path d="M865 640 c-38 -7 -38 -7 18 -9 37 0 56 3 52 9 -7 11 -10 11 -70 0z"/>
<path d="M2205 639 c-3 -4 2 -10 11 -13 23 -9 54 -7 54 3 0 11 -59 20 -65 10z"/>
<path d="M2080 620 c0 -5 5 -10 10 -10 6 0 10 5 10 10 0 6 -4 10 -10 10 -5 0
-10 -4 -10 -10z"/>
<path d="M633 605 c-8 -23 0 -24 20 -3 14 15 15 18 2 18 -9 0 -18 -7 -22 -15z"/>
<path d="M2358 607 c8 -9 11 -21 7 -27 -3 -5 1 -10 9 -10 19 0 6 42 -15 49
-12 4 -12 2 -1 -12z"/>
<path d="M2210 564 c0 -9 9 -27 20 -41 15 -19 20 -21 20 -9 0 9 -4 16 -10 16
-5 0 -10 11 -10 25 0 14 -4 25 -10 25 -5 0 -10 -7 -10 -16z"/>
<path d="M2266 563 c-4 -9 -3 -20 2 -25 6 -6 12 -1 15 11 6 25 -8 38 -17 14z"/>
<path d="M618 545 c-3 -14 -1 -28 3 -31 5 -3 9 9 9 25 0 38 -6 40 -12 6z"/>
<path d="M670 551 c0 -12 6 -21 15 -21 8 0 15 4 15 9 0 5 -7 14 -15 21 -13 10
-15 9 -15 -9z"/>
<path d="M797 563 c-10 -9 -9 -61 2 -67 4 -3 6 6 3 19 -2 14 1 32 8 40 12 15
0 22 -13 8z"/>
<path d="M2318 553 c5 -10 11 -25 14 -33 3 -10 6 -9 10 6 3 14 -1 25 -14 33
-17 10 -18 10 -10 -6z"/>
<path d="M2050 546 c0 -14 3 -14 20 -4 17 11 22 10 31 -2 9 -13 10 -13 6 0 -5
21 -57 26 -57 6z"/>
<path d="M2392 540 c0 -14 2 -19 5 -12 2 6 2 18 0 25 -3 6 -5 1 -5 -13z"/>
<path d="M956 534 c-11 -29 -7 -48 7 -35 10 7 17 7 24 0 8 -8 13 -5 18 11 4
12 4 24 1 27 -3 4 -6 -1 -6 -10 0 -19 -15 -23 -26 -6 -3 6 0 15 7 20 11 7 11
9 -2 9 -9 0 -20 -7 -23 -16z"/>
<path d="M1990 529 c0 -5 5 -7 10 -4 6 3 10 8 10 11 0 2 -4 4 -10 4 -5 0 -10
-5 -10 -11z"/>
<path d="M710 521 c0 -5 5 -13 10 -16 6 -3 10 -2 10 4 0 5 -4 13 -10 16 -5 3
-10 2 -10 -4z"/>
<path d="M840 516 c0 -9 5 -16 10 -16 6 0 10 4 10 9 0 6 -4 13 -10 16 -5 3
-10 -1 -10 -9z"/>
<path d="M1076 495 c-20 -31 -20 -36 0 -28 9 3 20 0 25 -8 6 -10 9 -4 9 18 0
41 -14 49 -34 18z"/>
<path d="M1987 503 c-4 -3 -7 -11 -7 -17 0 -6 5 -5 12 2 6 6 9 14 7 17 -3 3
-9 2 -12 -2z"/>
<path d="M2015 500 c3 -5 8 -10 11 -10 2 0 4 5 4 10 0 6 -5 10 -11 10 -5 0 -7
-4 -4 -10z"/>
<path d="M2140 500 c0 -5 5 -10 10 -10 6 0 10 5 10 10 0 6 -4 10 -10 10 -5 0
-10 -4 -10 -10z"/>
<path d="M1150 486 c0 -9 5 -16 10 -16 6 0 10 4 10 9 0 6 -4 13 -10 16 -5 3
-10 -1 -10 -9z"/>
<path d="M1830 479 c0 -5 5 -7 10 -4 6 3 10 8 10 11 0 2 -4 4 -10 4 -5 0 -10
-5 -10 -11z"/>
<path d="M1900 470 c0 -5 5 -10 11 -10 5 0 7 5 4 10 -3 6 -8 10 -11 10 -2 0
-4 -4 -4 -10z"/>
<path d="M1862 458 c2 -6 10 -14 16 -16 7 -2 10 2 6 12 -7 18 -28 22 -22 4z"/>
<path d="M1182 448 c-16 -16 -15 -28 3 -28 8 0 15 9 15 20 0 23 -2 24 -18 8z"/>
<path d="M1830 439 c0 -18 2 -19 15 -9 15 12 12 30 -6 30 -5 0 -9 -10 -9 -21z"/>
<path d="M1270 440 c0 -5 7 -7 15 -4 8 4 15 8 15 10 0 2 -7 4 -15 4 -8 0 -15
-4 -15 -10z"/>
<path d="M1724 435 c-7 -18 3 -65 14 -65 4 0 8 9 8 20 0 11 -4 20 -8 20 -13 0
-9 28 5 33 9 4 9 6 -1 6 -7 1 -15 -6 -18 -14z"/>
<path d="M1340 399 c-10 -24 -10 -32 0 -42 10 -10 12 -8 7 6 -4 12 -1 17 10
17 13 0 14 3 6 11 -6 6 -9 18 -6 25 11 28 -5 13 -17 -17z"/>
<path d="M1561 365 c1 -40 1 -40 10 -10 5 18 5 33 -1 39 -7 7 -10 -4 -9 -29z"/>
<path d="M1420 370 c0 -21 15 -27 25 -10 3 6 1 10 -5 10 -6 0 -8 5 -5 10 3 6
1 10 -4 10 -6 0 -11 -9 -11 -20z"/>
<path d="M1480 361 c0 -29 19 -55 21 -29 1 7 3 23 4 36 1 13 -3 22 -11 22 -9
0 -14 -11 -14 -29z"/>
<path d="M1597 350 c3 -11 12 -20 19 -20 20 0 17 18 -5 29 -16 9 -18 8 -14 -9z"/>
<path d="M1660 348 c0 -4 4 -8 9 -8 6 0 12 4 15 8 3 5 -1 9 -9 9 -8 0 -15 -4
-15 -9z"/>
</g>
</svg>
