<?xml version="1.0" standalone="no"?>
<!DOCTYPE svg PUBLIC "-//W3C//DTD SVG 20010904//EN"
 "http://www.w3.org/TR/2001/REC-SVG-20010904/DTD/svg10.dtd">
<svg version="1.0" xmlns="http://www.w3.org/2000/svg"
 width="280.000000pt" height="280.000000pt" viewBox="0 0 280.000000 280.000000"
 preserveAspectRatio="xMidYMid meet">

<g transform="translate(0.000000,280.000000) scale(0.100000,-0.100000)"
fill="#000000" stroke="none">
<path d="M1317 2612 c-22 -24 -21 -30 6 -34 34 -5 35 -51 1 -99 -15 -21 -30
-39 -35 -39 -17 0 -26 34 -21 76 6 59 -10 78 -61 71 -45 -6 -72 -28 -97 -77
-23 -46 -40 -128 -34 -165 12 -80 16 -170 10 -219 l-7 -54 -37 5 c-28 4 -44 0
-64 -17 -28 -22 -38 -63 -17 -75 5 -4 14 -18 19 -31 5 -13 16 -24 25 -24 8 0
15 -5 15 -11 0 -7 15 -26 34 -43 18 -18 37 -42 40 -54 4 -12 14 -22 22 -22 8
0 14 -6 14 -13 0 -8 9 -22 20 -32 11 -10 20 -24 20 -32 0 -7 7 -16 15 -19 8
-3 21 -19 29 -35 l14 -29 -111 -2 c-62 -2 -160 -2 -218 0 l-107 3 -36 -31
c-42 -37 -109 -167 -131 -254 -12 -49 -25 -70 -75 -122 -33 -34 -60 -65 -60
-69 0 -4 11 -4 25 -1 14 4 34 2 44 -4 17 -9 19 -18 14 -87 -8 -121 24 -176
110 -190 31 -5 41 -1 67 25 24 24 30 39 30 71 0 44 -2 46 -30 31 -13 -7 -21
-6 -30 5 -19 23 -32 18 -28 -12 4 -33 -17 -42 -26 -11 -7 29 -7 93 0 140 l6
37 101 32 101 31 22 -25 c12 -14 25 -44 29 -66 8 -49 17 -45 49 17 13 26 33
56 45 66 l21 19 0 -52 c0 -51 -4 -58 -136 -250 l-136 -197 -84 -29 c-46 -16
-84 -32 -84 -35 0 -25 200 -80 403 -111 194 -30 592 -32 772 -5 118 18 287 61
354 89 l34 14 -54 20 c-30 11 -64 24 -76 27 -13 4 -23 11 -23 17 0 5 -34 59
-76 120 -63 93 -74 115 -69 139 3 16 13 34 21 41 20 16 29 2 38 -53 7 -40 29
-59 48 -40 8 8 4 61 -12 184 -25 190 -35 218 -115 321 -64 81 -116 108 -228
119 -123 11 -121 10 -96 53 12 19 25 35 30 35 5 0 9 9 9 19 0 11 9 23 20 26
11 3 23 17 26 30 3 13 12 26 20 29 8 3 14 15 14 26 0 11 7 20 15 20 8 0 20 10
26 23 7 12 18 26 25 30 8 4 14 15 14 22 0 8 7 15 15 15 8 0 15 5 15 10 0 6 11
20 25 32 14 12 25 28 25 35 0 7 4 13 9 13 12 0 22 27 15 44 -12 30 -51 36
-137 21 -45 -8 -102 -21 -126 -30 -61 -21 -76 -19 -77 9 -2 23 2 24 67 28 37
2 71 7 75 11 4 4 -24 53 -63 110 -38 56 -75 112 -82 124 -11 22 -10 22 21 16
20 -4 48 -22 70 -46 20 -22 41 -37 46 -33 5 3 13 -5 16 -19 4 -14 13 -25 21
-25 8 0 15 -4 15 -8 0 -5 7 -17 15 -28 15 -19 15 -19 8 1 -6 18 -4 18 20 -4
l26 -23 -16 48 c-9 29 -15 83 -14 129 1 181 -52 285 -147 285 -42 0 -56 -21
-48 -75 8 -51 -5 -85 -34 -85 -22 0 -31 23 -30 82 1 105 -7 118 -76 118 -27 0
-46 -6 -57 -18z m2 -368 c-8 -43 0 -128 15 -164 4 -10 -3 -25 -18 -39 -24 -23
-25 -23 -95 -7 -38 9 -86 16 -105 16 -43 0 -44 6 -11 44 14 16 25 35 25 42 0
7 9 16 20 19 11 3 23 17 26 31 3 13 10 24 14 24 4 0 20 18 35 40 15 22 31 37
36 34 5 -3 9 -1 9 5 0 13 32 19 46 9 8 -6 9 -23 3 -54z m141 -193 c0 -5 -9
-15 -19 -21 -13 -6 -17 -17 -14 -30 4 -14 1 -19 -8 -16 -8 2 -25 7 -39 10 -20
4 -25 12 -27 40 -2 28 3 39 29 59 l31 25 24 -28 c12 -15 23 -33 23 -39z m-453
-38 c-9 -9 -19 -14 -23 -11 -10 10 6 28 24 28 15 0 15 -1 -1 -17z m788 6 c4
-6 5 -12 2 -15 -7 -7 -37 7 -37 17 0 13 27 11 35 -2z m-590 -47 c164 -70 177
-74 240 -70 52 3 73 11 154 61 52 31 98 57 103 57 5 0 4 -9 -2 -20 -6 -11 -15
-20 -21 -20 -14 0 -63 -50 -72 -72 -3 -10 -11 -18 -16 -18 -5 0 -12 -9 -16
-19 -3 -10 -17 -22 -30 -25 -14 -4 -25 -12 -25 -20 0 -7 -9 -21 -20 -31 -11
-10 -20 -23 -20 -29 0 -6 -9 -17 -20 -24 -11 -7 -20 -18 -20 -25 0 -6 -12 -25
-26 -40 -28 -33 -39 -29 -70 28 -10 19 -26 37 -35 40 -9 3 -20 13 -23 23 -13
39 -44 77 -64 80 -12 2 -22 10 -22 18 0 8 -6 17 -14 20 -8 3 -17 16 -20 30 -4
13 -13 24 -21 24 -8 0 -15 7 -15 14 0 8 -12 21 -27 28 -14 7 -28 19 -31 26 -6
18 33 7 133 -36z m-157 6 c-3 -7 -15 -15 -28 -16 -21 -3 -22 -2 -11 12 16 19
44 21 39 4z m720 -5 c5 -18 -23 -16 -39 3 -11 14 -10 15 11 12 13 -1 25 -9 28
-15z m-668 -28 c0 -17 -36 -39 -51 -29 -7 4 -4 13 7 25 20 23 44 25 44 4z
m611 5 c18 -10 27 -40 11 -40 -16 0 -52 32 -47 41 8 11 12 11 36 -1z m-571
-45 c0 -19 -39 -40 -52 -27 -6 6 -2 15 13 26 29 20 39 20 39 1z m533 1 c17
-13 23 -36 9 -36 -16 0 -52 32 -47 41 8 12 16 11 38 -5z m-493 -45 c0 -11 -39
-41 -52 -41 -15 0 -8 29 10 39 22 13 42 14 42 2z m466 -5 c14 -11 16 -18 8
-26 -15 -15 -54 4 -54 25 0 19 21 19 46 1z m-52 -47 c28 -22 27 -39 -3 -39
-22 0 -55 35 -46 49 9 16 19 14 49 -10z m-364 -4 c0 -16 -30 -35 -54 -35 -19
0 -21 21 -4 38 17 17 58 15 58 -3z m21 -66 c-25 -21 -46 -24 -55 -10 -9 14 57
50 69 39 7 -6 2 -16 -14 -29z m317 11 c7 0 12 -7 12 -15 0 -21 -34 -19 -54 4
-23 26 -11 49 13 27 10 -9 23 -16 29 -16z m-258 -43 c0 -20 -22 -37 -47 -37
-27 0 -30 18 -5 36 22 17 52 18 52 1z m212 -4 c24 -22 23 -33 -4 -33 -22 0
-58 26 -58 42 0 14 43 9 62 -9z m-184 -60 c2 -8 -6 -13 -22 -13 -25 0 -33 10
-19 24 10 10 36 3 41 -11z m141 8 c10 -7 11 -13 2 -30 -12 -22 -27 -26 -49
-12 -12 7 -12 12 -1 30 15 23 26 26 48 12z m-459 -43 c124 3 125 3 188 -30 57
-30 62 -35 57 -59 -3 -14 1 -45 8 -68 l15 -41 -35 -17 c-24 -11 -41 -30 -54
-57 -17 -39 -19 -40 -62 -37 -71 4 -152 -46 -175 -109 l-9 -25 -16 30 c-21 42
-43 59 -115 89 l-62 26 -48 -33 c-27 -18 -63 -39 -81 -47 l-32 -13 21 -22 c19
-21 21 -31 16 -101 -7 -93 7 -147 40 -152 12 -2 28 3 35 10 8 7 22 14 32 16
16 3 17 0 7 -18 -19 -36 -55 -46 -95 -27 -46 22 -55 49 -55 162 0 93 0 95 -26
101 l-25 7 32 33 c24 25 42 34 66 34 18 0 33 5 33 10 0 6 -10 10 -22 10 -12 0
-18 3 -14 8 8 7 13 9 43 11 21 1 6 17 -22 24 -15 4 -13 5 8 6 17 1 27 7 27 16
0 10 10 15 34 15 18 0 39 -7 46 -15 7 -8 21 -15 31 -15 11 0 16 -5 14 -12 -3
-7 13 -23 35 -36 37 -21 42 -22 70 -7 35 18 38 36 10 75 -11 16 -18 34 -15 42
6 17 -4 32 -31 46 -16 9 -26 8 -42 -4 -15 -11 -27 -12 -39 -5 -12 6 -32 3 -67
-11 -51 -20 -69 -35 -60 -50 3 -4 -2 -8 -11 -8 -14 0 -16 6 -11 28 12 46 61
145 91 180 35 42 60 53 105 44 19 -4 91 -6 160 -4z m294 -8 c41 -6 106 -21
143 -34 37 -13 104 -27 148 -30 130 -11 189 -51 270 -186 28 -47 35 -73 49
-176 20 -147 20 -141 -2 -114 -24 30 -46 18 -74 -38 -18 -39 -23 -68 -26 -169
l-4 -122 -31 -10 c-16 -6 -45 -11 -63 -11 -36 0 -32 -8 -55 125 -13 82 -13 91
7 87 19 -4 18 7 -3 30 -15 17 -15 21 -3 29 13 8 13 10 0 19 -8 5 -21 10 -29
10 -11 0 -9 4 5 14 35 26 8 26 -71 -1 l-78 -26 -116 22 c-168 31 -155 35 -170
-58 -9 -60 -28 -241 -31 -293 0 -8 -127 -5 -135 4 -4 4 -4 45 0 93 6 72 10 84
21 74 8 -7 12 -20 9 -30 -4 -11 -2 -19 3 -19 6 0 18 21 27 48 9 26 26 63 36
83 28 54 24 72 -26 118 -27 25 -45 50 -45 63 0 20 5 17 44 -21 24 -24 46 -38
50 -33 3 5 -17 30 -44 56 -48 45 -48 46 -22 46 99 0 187 74 222 186 19 64 20
68 3 87 -13 14 -18 37 -19 85 -1 64 -2 66 -32 76 -28 10 -53 26 -39 26 3 0 39
-5 81 -10z m-514 -345 c0 -6 -102 -36 -107 -31 -2 1 14 14 34 28 28 19 43 23
56 16 9 -5 17 -11 17 -13z m236 -246 c-6 -44 -22 -74 -99 -186 -59 -87 -97
-133 -107 -131 -37 7 -19 48 90 207 62 88 114 161 117 161 3 0 3 -23 -1 -51z
m99 -52 c-4 -15 -10 -27 -14 -27 -13 1 -51 73 -51 98 l0 27 36 -36 c29 -29 34
-40 29 -62z m275 28 c69 -14 142 -25 163 -25 43 0 51 -14 63 -101 6 -47 5 -51
-12 -45 -48 14 -232 36 -310 36 l-87 0 7 57 c10 84 16 103 35 103 9 0 72 -12
141 -25z m-325 -45 c16 -30 9 -40 -13 -18 -12 12 -17 48 -7 48 2 0 11 -13 20
-30z m5 -77 c0 -13 -3 -13 -15 -3 -8 7 -15 19 -15 27 0 13 3 13 15 3 8 -7 15
-19 15 -27z m828 -54 c44 -64 64 -109 48 -109 -2 0 -11 -3 -19 -6 -10 -3 -28
14 -56 53 -35 49 -41 66 -41 107 0 57 -1 58 68 -45z m-892 45 c-3 -9 -6 -22
-6 -29 0 -13 -29 -29 -37 -21 -7 7 30 66 40 66 5 0 6 -7 3 -16z m794 -159 c0
-8 -4 -15 -10 -15 -5 0 -10 7 -10 15 0 8 5 15 10 15 6 0 10 -7 10 -15z m-74
-22 c-10 -10 -19 5 -10 18 6 11 8 11 12 0 2 -7 1 -15 -2 -18z m39 18 c3 -5 1
-12 -5 -16 -5 -3 -10 1 -10 9 0 18 6 21 15 7z m-75 -11 c0 -5 -4 -10 -10 -10
-5 0 -10 5 -10 10 0 6 5 10 10 10 6 0 10 -4 10 -10z m-655 -48 c0 -18 -20 -15
-23 4 -3 10 1 15 10 12 7 -3 13 -10 13 -16z m40 -12 c-6 -9 -9 -9 -16 1 -10
17 0 34 13 21 6 -6 7 -16 3 -22z m41 -8 c-10 -10 -29 15 -21 28 6 9 10 8 17
-4 6 -10 7 -20 4 -24z m34 12 c0 -8 -4 -14 -10 -14 -5 0 -10 9 -10 21 0 11 5
17 10 14 6 -3 10 -13 10 -21z"/>
<path d="M754 1526 c-9 -24 4 -48 23 -44 12 2 18 12 18 28 0 29 -32 41 -41 16z"/>
<path d="M995 1447 l-49 -44 20 -49 c14 -34 27 -50 41 -52 19 -3 22 5 32 70 7
40 14 83 17 96 6 32 -5 28 -61 -21z"/>
<path d="M1617 1443 c-11 -11 -8 -21 9 -27 19 -7 47 12 38 25 -6 11 -38 12
-47 2z"/>
<path d="M1760 1396 c0 -9 7 -16 16 -16 9 0 14 5 12 12 -6 18 -28 21 -28 4z"/>
<path d="M1675 1390 c-9 -15 4 -30 26 -30 10 0 19 -4 19 -10 0 -5 7 -10 15
-10 8 0 15 5 15 10 0 6 -7 13 -15 16 -8 4 -15 12 -15 20 0 16 -36 19 -45 4z"/>
<path d="M1624 1359 c-10 -17 13 -36 27 -22 12 12 4 33 -11 33 -5 0 -12 -5
-16 -11z"/>
<path d="M1754 1339 c-10 -17 13 -36 27 -22 12 12 4 33 -11 33 -5 0 -12 -5
-16 -11z"/>
<path d="M1660 1325 c0 -8 7 -15 15 -15 8 0 15 7 15 15 0 8 -7 15 -15 15 -8 0
-15 -7 -15 -15z"/>
<path d="M1580 1305 c0 -9 9 -15 25 -15 16 0 25 6 25 15 0 9 -9 15 -25 15 -16
0 -25 -6 -25 -15z"/>
<path d="M1580 1260 c-13 -9 -13 -11 0 -20 20 -14 45 -8 45 10 0 18 -25 24
-45 10z"/>
<path d="M1683 1258 c2 -7 12 -13 22 -13 10 0 20 6 23 13 2 7 -6 12 -23 12
-17 0 -25 -5 -22 -12z"/>
<path d="M1720 1175 c0 -8 7 -15 15 -15 8 0 15 7 15 15 0 8 -7 15 -15 15 -8 0
-15 -7 -15 -15z"/>
<path d="M450 846 l-65 -11 3 -40 c2 -22 5 -41 6 -42 1 -2 27 -8 57 -14 47 -9
61 -8 94 6 l40 18 -27 10 c-25 10 -27 14 -22 49 7 43 13 42 -86 24z"/>
<path d="M2245 822 c6 -37 5 -41 -22 -50 l-28 -9 39 -17 c28 -11 53 -14 86
-10 63 8 68 13 72 59 l3 39 -45 8 c-25 4 -60 10 -78 13 l-34 6 7 -39z"/>
<path d="M326 714 c-19 -50 -10 -59 94 -99 80 -31 99 -42 94 -54 -14 -34 -16
-116 -2 -133 18 -23 239 -92 389 -122 423 -85 831 -54 1250 93 61 22 113 42
117 45 13 14 -10 18 -32 7 -31 -17 -44 -9 -52 35 -5 25 -11 34 -21 30 -8 -3
-21 -6 -29 -6 -16 0 -19 -46 -3 -55 6 -4 16 1 23 11 17 22 31 2 17 -25 -26
-48 -81 -19 -81 43 0 42 32 71 62 55 12 -6 18 -6 18 0 0 9 50 41 65 41 12 0 4
-28 -10 -34 -8 -3 -15 -11 -15 -18 0 -9 3 -9 12 0 7 7 16 12 20 12 14 0 8 -23
-9 -36 -21 -15 -13 -27 11 -18 11 4 16 18 16 48 l0 41 100 39 c99 39 100 39
100 73 0 21 -6 36 -15 39 -8 4 -65 -6 -125 -21 -104 -26 -110 -28 -104 -50 5
-22 -1 -26 -108 -60 -128 -42 -328 -87 -468 -107 -141 -19 -469 -16 -610 6
-123 19 -354 75 -415 100 -21 9 -47 16 -60 16 -33 0 -36 10 -14 41 l20 28 -38
10 c-183 48 -188 48 -197 25z m332 -188 c16 -8 37 -14 47 -13 15 2 20 -4 20
-22 0 -32 21 -38 28 -9 5 17 9 20 18 11 16 -16 -7 -124 -26 -117 -7 3 -13 17
-12 31 1 14 -4 28 -10 30 -8 3 -13 -4 -13 -16 0 -13 -6 -21 -16 -21 -14 0 -15
7 -10 39 9 56 -17 64 -33 10 -11 -37 -20 -46 -33 -34 -3 3 -1 24 5 46 7 29 7
43 -2 52 -27 27 -6 35 37 13z m1417 -58 c9 -63 9 -62 -3 -66 -11 -3 -17 13
-27 76 -5 33 -4 42 8 42 11 0 17 -16 22 -52z m-81 -9 c5 -34 10 -40 26 -36 31
8 34 -22 3 -34 -35 -13 -53 -5 -53 24 0 14 -3 39 -6 56 -5 24 -3 31 8 31 10 0
18 -14 22 -41z m-1150 21 c34 -13 35 -34 1 -26 -30 8 -34 -10 -5 -19 28 -9 25
-25 -5 -25 -30 0 -33 -16 -5 -23 11 -3 20 -12 20 -20 0 -13 -6 -13 -36 -4 -35
11 -36 11 -29 55 11 77 14 79 59 62z m1093 -2 c30 -38 20 -101 -17 -111 -27
-7 -60 24 -60 56 0 49 52 86 77 55z m-87 -39 c0 -18 -7 -32 -20 -39 -11 -6
-20 -20 -20 -30 0 -11 -7 -20 -15 -20 -11 0 -15 12 -15 50 0 28 0 53 -1 58 0
9 42 20 59 14 6 -2 12 -17 12 -33z m-767 -17 l11 -27 4 28 c3 26 16 35 26 19
8 -13 -9 -117 -19 -117 -5 0 -16 14 -24 30 -14 29 -15 29 -20 7 -11 -43 -26
-22 -22 31 2 29 5 55 8 60 7 12 23 -2 36 -31z m85 -29 c-4 -81 -28 -85 -28 -4
0 48 3 61 15 61 13 0 15 -11 13 -57z m87 44 c10 -8 15 -19 11 -26 -6 -9 -11
-9 -22 0 -20 16 -37 -1 -32 -32 2 -15 11 -25 23 -26 11 -2 14 0 8 3 -21 9 -15
34 8 34 17 0 20 -5 17 -32 -3 -29 -7 -33 -36 -36 -27 -3 -34 1 -42 24 -13 34
-4 81 18 94 22 13 25 12 47 -3z m93 3 c6 0 12 -4 12 -10 0 -5 -9 -10 -20 -10
-11 0 -20 -4 -20 -10 0 -5 9 -10 20 -10 11 0 20 -7 20 -15 0 -8 -9 -15 -20
-15 -11 0 -20 -4 -20 -10 0 -5 9 -10 20 -10 11 0 20 -7 20 -15 0 -10 -11 -15
-35 -15 l-35 0 0 66 c0 64 1 66 23 60 12 -3 28 -6 35 -6z m237 -30 c30 -87 31
-82 -9 -75 -24 5 -36 3 -36 -4 0 -6 -4 -11 -10 -11 -13 0 -13 31 1 86 14 54
36 56 54 4z m-128 14 c3 -9 1 -24 -5 -34 -6 -10 -7 -22 -1 -31 13 -21 11 -39
-4 -39 -8 0 -19 10 -25 23 l-11 22 0 -22 c-1 -14 -7 -23 -16 -23 -12 0 -15 13
-15 60 l0 60 35 0 c24 0 38 -5 42 -16z m43 -45 c0 -81 -24 -77 -28 4 -2 46 0
57 13 57 12 0 15 -13 15 -61z"/>
<path d="M1897 453 c-11 -10 -8 -41 4 -49 17 -10 32 12 24 35 -6 21 -16 26
-28 14z"/>
<path d="M1811 434 c0 -11 3 -14 6 -6 3 7 2 16 -1 19 -3 4 -6 -2 -5 -13z"/>
<path d="M1550 386 c0 -9 5 -16 10 -16 6 0 10 4 10 9 0 6 -4 13 -10 16 -5 3
-10 -1 -10 -9z"/>
<path d="M1410 404 c0 -8 5 -12 10 -9 6 4 8 11 5 16 -9 14 -15 11 -15 -7z"/>
</g>
</svg>
