<?xml version="1.0" standalone="no"?>
<!DOCTYPE svg PUBLIC "-//W3C//DTD SVG 20010904//EN"
 "http://www.w3.org/TR/2001/REC-SVG-20010904/DTD/svg10.dtd">
<svg version="1.0" xmlns="http://www.w3.org/2000/svg"
 width="500.000000pt" height="500.000000pt" viewBox="0 0 500.000000 500.000000"
 preserveAspectRatio="xMidYMid meet">

<g transform="translate(0.000000,500.000000) scale(0.100000,-0.100000)"
fill="#000000" stroke="none">
<path d="M2185 4949 c-313 -47 -529 -113 -785 -240 -490 -244 -878 -627 -1124
-1111 -164 -322 -243 -610 -267 -966 -24 -367 37 -758 170 -1087 79 -196 252
-489 380 -646 130 -158 325 -339 501 -466 289 -207 687 -373 1017 -422 113
-17 758 -14 868 4 280 45 604 169 859 327 590 365 1010 960 1141 1618 9 47 21
104 26 126 5 23 14 119 20 213 26 369 -34 757 -166 1086 -49 123 -175 360
-246 466 -237 353 -576 655 -947 842 -277 141 -482 205 -802 252 -108 16 -546
18 -645 4z m226 -278 c21 -63 40 -116 43 -118 4 -5 11 15 46 137 12 41 23 81
25 88 5 13 116 18 114 5 0 -5 -28 -84 -62 -178 l-62 -170 -60 -3 -60 -3 -34
88 c-114 295 -112 275 -32 271 l43 -3 39 -114z m520 73 c6 -3 2 -36 -25 -184
-9 -47 -19 -102 -22 -124 l-7 -38 -49 4 c-26 3 -51 8 -54 11 -6 6 42 304 53
333 4 12 16 13 52 8 25 -4 49 -8 52 -10z m-842 -91 c12 -54 26 -114 30 -133 5
-19 12 -54 16 -76 l6 -42 -38 -6 c-21 -4 -45 -9 -54 -12 -13 -3 -19 9 -29 58
-7 35 -24 112 -37 172 -13 60 -22 111 -19 113 6 6 64 21 88 22 13 1 21 -19 37
-96z m1123 20 c24 -9 44 -17 46 -18 1 -1 -15 -47 -36 -101 -61 -158 -63 -144
23 -177 44 -16 75 -34 75 -42 0 -29 -20 -65 -36 -65 -10 0 -68 19 -131 42 -75
29 -113 48 -113 58 0 24 112 320 121 320 5 0 28 -7 51 -17z m-1453 -61 c34
-25 33 -36 -8 -66 -31 -23 -35 -24 -57 -9 -32 20 -81 2 -90 -34 -14 -54 38
-153 80 -153 38 0 66 28 66 66 0 30 3 34 28 34 15 0 37 3 50 6 21 6 22 3 22
-41 0 -57 -26 -97 -80 -125 -89 -45 -167 -35 -223 31 -76 88 -76 200 -1 263
69 57 158 69 213 28z m1101 -416 c211 -46 411 -127 575 -231 368 -236 627
-575 756 -992 83 -266 93 -626 25 -914 -81 -342 -290 -683 -567 -925 -439
-384 -1084 -522 -1649 -354 -107 32 -114 35 -235 90 -471 213 -839 651 -970
1155 -91 351 -69 755 60 1080 239 603 790 1034 1425 1115 36 5 155 7 265 5
166 -3 220 -8 315 -29z m-2068 -1132 c3 -3 -1 -26 -9 -52 -57 -179 -77 -319
-77 -537 -1 -207 7 -276 48 -437 l23 -88 -344 0 c-202 0 -343 4 -343 9 0 5
-10 65 -22 133 -18 104 -22 162 -22 373 0 161 4 277 12 325 27 157 43 236 52
258 l10 22 333 0 c184 0 336 -2 339 -6z m4102 -21 c54 -250 61 -312 61 -578 0
-228 -4 -270 -37 -452 l-12 -63 -339 0 -339 0 7 28 c50 195 58 267 59 487 1
204 -1 230 -27 352 -15 73 -34 151 -42 174 -31 86 -58 79 324 79 l339 0 6 -27z
m-1014 -2064 c0 -3 -32 -29 -70 -58 -60 -46 -68 -56 -58 -70 7 -9 13 -18 15
-20 1 -2 33 20 70 48 l68 53 23 -29 22 -28 -33 -30 c-18 -16 -47 -41 -66 -55
l-33 -25 20 -25 20 -24 73 57 74 57 22 -27 c13 -16 23 -33 23 -39 0 -13 -228
-190 -235 -183 -2 3 -51 65 -109 139 -84 109 -102 138 -93 149 7 8 59 50 117
93 l105 79 22 -28 c13 -15 23 -30 23 -34z m-2539 -113 c29 -47 25 -103 -13
-166 -47 -77 -88 -103 -159 -98 -50 4 -65 11 -137 64 -45 32 -81 63 -82 68 0
10 40 65 147 204 l64 82 80 -61 c44 -34 89 -75 100 -93z m289 -146 c49 -22
108 -49 130 -60 l40 -21 -16 -32 c-9 -17 -18 -34 -20 -35 -1 -2 -38 13 -80 33
-73 34 -79 35 -91 19 -17 -23 -9 -30 69 -65 35 -15 63 -31 62 -36 -1 -23 -17
-63 -25 -63 -5 0 -37 14 -71 30 -70 34 -83 36 -92 14 -13 -33 -4 -42 69 -74
42 -18 78 -37 81 -41 3 -5 -2 -22 -11 -40 -20 -38 -25 -37 -180 36 l-115 54
36 78 c20 43 50 110 67 148 29 66 45 95 53 95 2 0 44 -18 94 -40z m1878 10
c17 -11 32 -24 32 -29 0 -6 -16 -22 -35 -37 -32 -24 -38 -25 -65 -14 -25 10
-34 10 -55 -4 -45 -30 -42 -89 7 -151 38 -48 102 -24 110 40 3 26 8 30 47 37
24 4 48 5 54 1 15 -9 1 -92 -20 -122 -27 -37 -118 -81 -167 -81 -94 0 -176
100 -176 215 0 115 167 206 268 145z m-429 -157 c13 -47 63 -283 65 -302 1
-16 -32 -29 -79 -30 -24 -1 -45 13 -109 77 -60 59 -78 71 -72 52 14 -55 30
-160 24 -165 -4 -4 -28 -7 -53 -8 l-48 -2 -33 165 c-19 91 -34 168 -34 171 0
4 23 11 52 17 l52 10 78 -76 c85 -82 89 -81 63 18 -22 81 -21 86 28 97 23 6
45 11 49 12 4 0 12 -16 17 -36z m-1009 -1 l115 -28 -3 -35 c-2 -18 -6 -36 -8
-39 -3 -2 -38 3 -79 12 -41 8 -77 13 -80 10 -3 -3 -5 -15 -5 -27 0 -18 10 -24
63 -36 60 -14 62 -15 59 -44 -2 -16 -7 -34 -11 -38 -4 -4 -36 -1 -70 7 -47 11
-63 12 -66 3 -2 -7 -9 -38 -15 -70 l-12 -59 -36 7 c-61 10 -72 16 -72 34 0 9
16 86 35 171 19 85 35 155 35 157 0 7 43 0 150 -25z m538 -84 l-3 -43 -87 3
-88 4 0 -26 c0 -25 2 -26 63 -26 94 0 107 -6 107 -46 l0 -34 -85 0 -85 0 0
-29 0 -29 93 -8 c89 -9 92 -10 95 -35 6 -49 -11 -54 -166 -51 l-142 3 0 173
c0 95 3 176 7 179 3 4 71 7 150 7 l144 0 -3 -42z"/>
<path d="M2444 4045 c-4 -8 -14 -15 -23 -15 -25 0 -41 -20 -41 -52 0 -26 3
-28 40 -28 41 0 80 -26 80 -54 0 -8 -20 -38 -45 -67 -25 -29 -45 -56 -45 -61
0 -9 -71 -11 -94 -2 -20 8 -21 60 -1 94 8 14 14 44 15 67 0 49 -25 73 -77 73
-48 0 -81 -16 -149 -73 -34 -29 -70 -58 -80 -65 -18 -12 -18 -12 1 -11 11 1
23 1 27 0 7 -1 -27 -63 -67 -125 -16 -24 -15 -24 5 -19 24 6 24 5 -10 -117
-29 -104 -31 -120 -20 -120 6 0 9 -8 7 -17 -28 -100 -69 -294 -64 -300 11 -11
48 29 64 70 19 46 26 44 13 -3 -5 -19 -8 -35 -7 -37 5 -4 76 33 96 50 9 8 28
17 44 21 15 3 27 11 27 16 0 6 11 15 25 20 14 5 34 24 43 42 9 18 32 46 50 63
19 16 43 47 55 68 24 43 34 46 39 15 3 -20 6 -18 25 17 l21 40 16 -39 c15 -35
15 -47 1 -130 -8 -50 -19 -106 -25 -125 -11 -40 -7 -49 15 -31 26 21 29 3 8
-47 l-20 -48 -46 3 c-37 2 -48 -1 -56 -17 -6 -11 -9 -26 -6 -33 3 -7 -7 -20
-23 -29 -25 -14 -28 -21 -26 -54 2 -21 10 -45 19 -55 18 -20 20 -40 3 -40 -6
0 -8 -3 -5 -7 4 -3 15 1 24 9 19 16 50 24 148 37 56 7 161 -4 226 -24 13 -4
21 -4 17 0 -4 5 -3 14 4 22 10 12 7 12 -15 2 -32 -14 -64 -5 -49 14 6 7 14 32
18 55 5 35 10 42 29 42 12 0 28 -7 35 -15 11 -13 15 -13 21 -3 7 10 13 10 26
2 28 -18 22 -79 -11 -105 l-26 -21 22 -18 c23 -19 19 -19 -235 -20 -157 0
-256 4 -252 9 3 5 1 12 -5 16 -5 3 -10 1 -10 -4 0 -16 -56 -13 -69 3 -7 8 -16
27 -21 43 -7 22 -8 24 -9 7 -1 -12 8 -33 19 -47 l21 -26 -78 -3 -78 -3 1 -275
c0 -264 2 -279 27 -380 18 -69 47 -145 84 -220 32 -63 60 -119 62 -124 5 -12
-71 3 -89 18 -17 14 -196 16 -217 3 -7 -5 -17 -6 -22 -2 -6 3 -29 -13 -52 -34
-41 -40 -42 -40 -71 -25 -38 20 -88 27 -88 12 0 -6 -11 -8 -26 -5 -16 3 -28 0
-31 -9 -2 -7 -11 -10 -19 -7 -8 3 -14 0 -14 -7 0 -8 -11 -11 -30 -8 -22 3 -31
0 -36 -14 -3 -10 -12 -18 -20 -18 -9 0 -14 -11 -14 -35 0 -31 -4 -36 -29 -41
-17 -4 -32 -12 -35 -19 -2 -7 -31 -27 -63 -44 -56 -30 -93 -71 -93 -103 0 -8
16 -30 36 -49 20 -18 50 -58 66 -87 17 -29 32 -51 35 -48 6 6 -43 84 -73 116
l-23 25 72 1 c45 1 110 11 172 28 154 43 167 46 207 46 42 0 52 -11 44 -44 -7
-27 -44 -47 -146 -78 -72 -22 -75 -24 -78 -55 -3 -30 -1 -33 25 -34 60 -2 101
3 168 20 274 72 399 86 765 86 356 0 431 -7 685 -67 229 -53 268 -56 280 -17
10 31 -12 47 -103 75 -119 37 -143 55 -126 98 10 25 63 20 214 -20 169 -45
294 -54 311 -23 16 31 1 77 -35 104 -18 14 -37 25 -42 25 -6 0 -25 13 -44 30
-19 16 -42 29 -50 30 -23 0 -40 21 -40 47 0 30 -39 68 -66 65 -12 -2 -25 1
-28 7 -4 6 -13 8 -21 4 -8 -3 -15 0 -15 6 0 6 -11 11 -24 11 -14 0 -27 4 -31
9 -8 14 -62 5 -91 -14 -24 -15 -26 -15 -57 11 -18 14 -36 33 -40 41 -5 8 -16
11 -28 8 -11 -4 -19 -2 -19 5 0 7 -7 10 -15 7 -8 -4 -17 -2 -20 3 -3 5 -18 5
-34 0 -16 -4 -53 -6 -82 -3 -38 3 -56 0 -64 -10 -12 -16 -72 -30 -79 -18 -3 4
11 39 31 77 43 83 78 174 106 269 17 61 20 109 24 363 l5 292 -75 0 -75 0 13
28 c14 27 10 72 -6 72 -4 0 -24 14 -42 30 -19 17 -40 30 -47 30 -6 0 -26 10
-42 22 -29 20 -30 22 -12 35 11 8 46 13 95 13 43 0 80 4 83 9 4 5 -27 48 -68
95 -96 113 -142 215 -125 278 l11 41 29 -51 c16 -28 39 -58 51 -66 13 -9 32
-33 43 -53 11 -21 29 -42 41 -48 11 -5 28 -18 38 -28 10 -9 26 -17 35 -17 10
0 24 -6 30 -14 21 -25 94 -57 102 -44 5 7 15 2 31 -17 14 -15 29 -26 34 -24 6
2 -5 66 -27 159 -22 93 -34 157 -28 161 8 5 -19 131 -47 223 -5 15 -2 18 15
13 24 -6 24 -7 -31 75 -43 64 -44 68 -23 68 24 0 18 11 -27 52 -74 65 -116 90
-161 95 -91 11 -124 -55 -77 -148 33 -64 21 -81 -66 -92 l-32 -3 6 82 c3 56 1
93 -8 114 -11 26 -10 33 4 49 16 18 15 19 -29 25 -25 4 -61 14 -80 22 -44 18
-84 18 -91 -1z m106 -835 c20 -110 22 -104 -38 -103 -29 0 -55 3 -58 6 -3 3
-3 20 1 37 5 21 12 30 23 28 12 -2 23 12 37 49 11 28 21 50 22 49 1 -1 7 -31
13 -66z m105 -71 c5 -21 3 -34 -6 -40 -19 -11 -29 -1 -29 30 0 50 25 57 35 10z
m-189 -133 c12 -59 12 -59 -19 -63 -38 -5 -66 13 -83 53 -17 40 -10 58 17 51
10 -3 21 -2 24 3 2 4 16 5 29 3 20 -4 26 -13 32 -47z m-308 -180 c17 -9 57
-40 89 -69 68 -62 95 -80 144 -96 20 -6 54 -27 77 -46 22 -19 43 -35 46 -35 3
0 27 16 52 36 26 19 75 48 109 63 35 16 90 54 123 84 43 40 76 60 113 71 81
25 79 27 79 -68 0 -72 -3 -86 -17 -91 -10 -3 -45 -31 -79 -63 -59 -55 -75 -65
-178 -112 -57 -27 -102 -89 -112 -157 -3 -25 -1 -79 6 -120 11 -70 10 -84 -11
-169 -21 -88 -22 -100 -10 -186 9 -68 10 -105 2 -138 -6 -25 -11 -66 -11 -91
0 -41 -4 -50 -34 -73 -19 -14 -40 -26 -46 -26 -19 0 -110 80 -110 97 0 8 7 37
16 64 16 49 16 63 -2 205 -4 30 1 56 20 102 30 71 33 117 10 170 -11 26 -16
64 -15 128 1 86 0 93 -29 132 -22 31 -50 51 -114 82 -66 32 -95 53 -132 97
-29 33 -65 64 -91 75 l-43 19 0 71 0 71 58 -6 c32 -2 73 -12 90 -21z m312 -55
c-13 -25 -13 -68 0 -76 13 -8 13 -25 0 -25 -5 0 -24 12 -40 28 -35 31 -33 49
8 75 36 22 45 21 32 -2z m132 -11 l33 -30 -35 -30 c-46 -40 -66 -40 -45 -1 11
22 12 37 5 56 -12 33 -12 35 0 35 5 0 24 -14 42 -30z m-306 -330 c13 -25 24
-61 26 -80 3 -32 0 -35 -25 -38 l-28 -3 3 -210 3 -209 -25 0 -25 0 3 209 3
210 -33 3 c-30 3 -33 6 -30 33 2 17 15 54 29 83 22 46 28 53 51 50 19 -2 32
-14 48 -48z m582 -29 l3 -54 -30 7 c-17 3 -43 9 -58 12 l-28 6 0 -224 c0 -226
-4 -262 -27 -253 -10 4 -14 58 -15 233 -1 125 -4 247 -5 272 l-3 45 65 6 c98
9 95 11 98 -50z m-874 -586 c3 -9 -1 -18 -10 -22 -19 -7 -26 0 -18 21 8 20 20
21 28 1z m1020 -1 c8 -21 1 -28 -18 -21 -9 4 -13 13 -10 22 8 20 20 19 28 -1z
m-1097 -39 c3 -9 3 -19 -1 -22 -8 -9 -37 18 -30 28 8 14 24 11 31 -6z m1176 9
c9 -10 -4 -34 -19 -34 -8 0 -14 6 -14 13 0 22 19 35 33 21z m-1033 -40 c0 -9
-7 -14 -17 -12 -25 5 -28 28 -4 28 12 0 21 -6 21 -16z m900 7 c0 -18 -18 -21
-30 -6 -10 13 -9 15 9 15 11 0 21 -4 21 -9z m-1328 -63 c-9 -9 -15 -9 -24 0
-10 10 -10 15 2 22 9 6 19 5 24 0 7 -7 6 -14 -2 -22z m1746 9 c2 -10 -3 -17
-12 -17 -10 0 -16 9 -16 21 0 24 23 21 28 -4z m-1833 -5 c0 -18 -20 -15 -23 4
-3 10 1 15 10 12 7 -3 13 -10 13 -16z m392 1 c2 -6 -3 -13 -12 -16 -10 -5 -15
0 -15 14 0 21 21 22 27 2z m1141 -6 c4 -19 -6 -21 -27 -8 -16 10 -5 34 12 28
7 -2 13 -11 15 -20z m382 9 c0 -8 -4 -17 -9 -21 -12 -7 -24 12 -16 25 9 15 25
12 25 -4z m-1440 -17 c0 -5 -7 -9 -15 -9 -15 0 -20 12 -9 23 8 8 24 -1 24 -14z
m970 6 c0 -8 -4 -15 -10 -15 -5 0 -10 7 -10 15 0 8 5 15 10 15 6 0 10 -7 10
-15z m-750 -31 c0 -8 -7 -14 -15 -14 -17 0 -18 2 -9 24 7 18 24 12 24 -10z
m530 0 c0 -8 -7 -14 -15 -14 -17 0 -18 2 -9 24 7 18 24 12 24 -10z m-1100 -29
c0 -8 -7 -15 -15 -15 -8 0 -15 7 -15 15 0 8 7 15 15 15 8 0 15 -7 15 -15z
m1675 5 c3 -6 -1 -13 -10 -16 -19 -8 -30 0 -20 15 8 14 22 14 30 1z m-1808
-17 c4 -11 -26 -27 -35 -19 -2 3 -2 12 2 21 6 18 27 16 33 -2z m627 8 c3 -4 3
-11 0 -14 -8 -8 -34 3 -34 14 0 11 27 12 34 0z m684 -3 c-6 -18 -28 -21 -28
-4 0 9 7 16 16 16 9 0 14 -5 12 -12z m630 -11 c2 -11 -2 -14 -17 -10 -22 5
-26 14 -14 27 10 10 28 1 31 -17z m-1170 -9 c-7 -19 -38 -22 -38 -4 0 10 9 16
21 16 12 0 19 -5 17 -12z m410 0 c-3 -7 -11 -13 -18 -13 -7 0 -15 6 -17 13 -3
7 4 12 17 12 13 0 20 -5 18 -12z m-1108 -23 c0 -8 -4 -15 -9 -15 -13 0 -22 16
-14 24 11 11 23 6 23 -9z m1790 0 c0 -8 -4 -15 -9 -15 -13 0 -22 16 -14 24 11
11 23 6 23 -9z m-1222 -37 c-6 -18 -28 -21 -28 -4 0 9 7 16 16 16 9 0 14 -5
12 -12z m82 -8 c0 -11 -4 -20 -10 -20 -5 0 -10 9 -10 20 0 11 5 20 10 20 6 0
10 -9 10 -20z m482 -12 c-15 -15 -26 -4 -18 18 5 13 9 15 18 6 9 -9 9 -15 0
-24z m88 16 c0 -17 -22 -14 -28 4 -2 7 3 12 12 12 9 0 16 -7 16 -16z"/>
<path d="M2180 3000 c-17 -16 -25 -30 -18 -29 12 0 66 59 54 59 -3 0 -19 -13
-36 -30z"/>
<path d="M3696 1439 c-15 -18 -40 -58 -57 -90 -21 -43 -36 -60 -55 -65 -30 -8
-131 12 -136 27 -2 5 -28 -27 -59 -70 -31 -44 -52 -77 -45 -75 6 2 29 32 50
65 37 57 41 60 70 55 127 -25 144 -19 182 57 14 29 40 67 57 84 17 18 28 35
25 38 -3 3 -18 -9 -32 -26z"/>
<path d="M2487 1363 c-4 -3 -7 -19 -7 -35 0 -23 4 -28 23 -27 20 0 21 1 2 8
-19 8 -19 8 0 19 20 11 20 11 0 12 -20 1 -20 1 -1 15 15 12 16 15 5 15 -9 0
-19 -3 -22 -7z"/>
<path d="M2560 1335 c0 -28 4 -35 19 -35 24 0 43 23 35 44 -10 25 -22 19 -16
-9 3 -19 0 -25 -13 -25 -14 0 -16 6 -11 30 3 17 1 30 -4 30 -6 0 -10 -16 -10
-35z"/>
<path d="M2241 1348 c-1 -19 -21 -26 -21 -8 0 6 -4 10 -10 10 -5 0 -9 -15 -9
-32 1 -19 3 -25 6 -15 4 17 6 17 23 2 22 -20 29 -10 19 30 -3 17 -7 22 -8 13z"/>
<path d="M2274 1334 c-7 -26 6 -44 33 -44 18 0 27 20 14 33 -8 8 -11 6 -11 -7
0 -22 -24 -16 -28 7 -2 10 6 21 20 26 l23 10 -22 0 c-16 1 -24 -6 -29 -25z"/>
<path d="M2368 1330 c2 -16 5 -30 7 -30 2 0 5 14 7 30 3 19 0 30 -7 30 -7 0
-10 -11 -7 -30z"/>
<path d="M2411 1331 c-1 -33 0 -34 13 -15 15 19 15 19 30 -1 15 -19 15 -19 16
13 0 17 -4 32 -10 32 -5 0 -10 -4 -10 -10 0 -14 -27 -12 -33 3 -3 6 -6 -3 -6
-22z"/>
<path d="M2630 1325 c0 -27 4 -35 18 -35 14 0 15 2 2 10 -12 8 -13 11 -1 19
10 6 10 10 1 16 -9 6 -9 10 1 16 11 7 10 9 -3 9 -14 0 -18 -8 -18 -35z"/>
<path d="M2686 1344 c-3 -9 -6 -25 -6 -37 0 -20 0 -20 14 -2 8 11 12 24 9 29
-3 4 1 12 8 17 11 7 11 9 -2 9 -9 0 -20 -7 -23 -16z"/>
<path d="M2736 1336 c-9 -34 -7 -46 10 -46 8 0 12 5 9 10 -3 6 -1 10 6 10 9 0
9 3 0 14 -10 11 -8 15 6 18 16 3 15 5 -4 10 -16 4 -23 1 -27 -16z"/>
<path d="M2172 1320 c0 -19 2 -27 5 -17 2 9 2 25 0 35 -3 9 -5 1 -5 -18z"/>
<path d="M2791 1313 c1 -33 2 -35 8 -13 l7 25 14 -25 c12 -23 14 -24 21 -5 13
34 11 49 -5 36 -10 -9 -15 -8 -20 4 -11 28 -26 15 -25 -22z"/>
<path d="M2070 1320 c-1 -22 -2 -23 -11 -7 -16 27 -29 20 -28 -15 0 -25 2 -28
8 -15 6 17 8 17 20 3 7 -9 17 -16 22 -16 12 0 11 41 -1 60 -8 12 -10 10 -10
-10z"/>
<path d="M2100 1311 c0 -36 13 -46 40 -31 31 17 23 54 -12 58 -25 3 -28 0 -28
-27z m40 -1 c0 -11 -7 -20 -15 -20 -8 0 -15 9 -15 20 0 11 7 20 15 20 8 0 15
-9 15 -20z"/>
<path d="M2870 1325 c-15 -18 -3 -55 18 -55 16 1 15 2 0 11 -25 14 -22 38 5
49 15 6 17 9 6 9 -9 1 -22 -6 -29 -14z"/>
<path d="M2924 1316 c-9 -23 0 -51 16 -52 9 0 10 1 3 3 -19 7 -16 23 5 23 14
0 15 2 2 10 -13 9 -13 11 0 20 13 8 12 10 -3 10 -10 0 -20 -6 -23 -14z"/>
<path d="M1370 1311 c0 -32 87 -52 135 -31 13 6 0 7 -36 3 -49 -5 -59 -3 -78
16 -11 11 -21 17 -21 12z"/>
<path d="M1927 1313 c-11 -10 -8 -51 3 -58 6 -3 10 0 10 9 0 8 6 17 13 19 7 3
4 6 -7 6 -15 1 -16 4 -6 16 12 14 0 22 -13 8z"/>
<path d="M1974 1298 c3 -13 6 -26 6 -30 0 -5 10 -7 23 -7 16 1 18 2 5 6 -21 5
-23 19 -5 26 9 4 9 6 -1 6 -7 1 -10 6 -7 11 3 6 -1 10 -11 10 -12 0 -15 -6
-10 -22z"/>
<path d="M2976 1297 c-5 -15 -6 -31 -2 -34 11 -11 18 5 14 34 l-4 28 -8 -28z"/>
<path d="M1540 1300 c-12 -8 -11 -10 8 -10 16 0 32 -15 56 -53 19 -29 41 -59
50 -66 9 -8 -7 20 -36 63 -28 42 -54 76 -57 76 -3 0 -13 -5 -21 -10z"/>
<path d="M3024 1284 c-4 -17 -2 -29 7 -35 22 -14 33 -10 19 6 -10 12 -10 15 0
15 10 0 10 3 1 14 -10 11 -8 15 6 19 14 4 13 5 -4 6 -16 1 -24 -6 -29 -25z"/>
<path d="M1864 1284 c3 -9 6 -22 6 -30 0 -8 10 -14 23 -14 16 0 18 3 8 9 -7 5
-10 14 -7 20 4 6 2 11 -4 11 -6 0 -8 5 -5 10 3 6 -1 10 -10 10 -12 0 -15 -5
-11 -16z"/>
<path d="M3085 1290 c-4 -6 -2 -17 5 -24 8 -11 8 -15 -2 -19 -7 -3 -3 -6 10
-6 25 -1 28 9 10 27 -10 10 -10 15 2 22 13 8 13 10 -2 10 -9 0 -20 -5 -23 -10z"/>
<path d="M1790 1281 c0 -18 20 -61 28 -61 4 0 16 6 26 13 28 21 13 57 -25 57
-16 0 -29 -4 -29 -9z m49 -15 c8 -10 8 -16 -2 -25 -16 -13 -27 -5 -27 21 0 21
13 23 29 4z"/>
<path d="M3141 1278 c1 -7 4 -24 9 -38 6 -22 8 -23 15 -7 4 10 2 23 -4 31 -10
11 -8 15 6 19 14 4 13 5 -4 6 -13 0 -23 -5 -22 -11z"/>
<path d="M2315 1253 c-78 -4 -318 -33 -324 -39 -2 -2 10 -4 27 -4 17 0 53 -8
79 -19 120 -46 240 -66 413 -65 170 0 279 18 378 60 20 9 57 19 82 23 45 7 44
7 -40 19 -190 28 -406 36 -615 25z"/>
<path d="M1948 1203 c7 -3 16 -2 19 1 4 3 -2 6 -13 5 -11 0 -14 -3 -6 -6z"/>
<path d="M1858 1183 c7 -3 16 -2 19 1 4 3 -2 6 -13 5 -11 0 -14 -3 -6 -6z"/>
<path d="M3128 1183 c6 -2 18 -2 25 0 6 3 1 5 -13 5 -14 0 -19 -2 -12 -5z"/>
<path d="M1142 807 l-53 -72 22 -17 c34 -28 63 -22 103 22 43 48 47 86 13 118
-13 12 -25 22 -28 22 -2 -1 -28 -33 -57 -73z"/>
</g>
</svg>
